<svg width="79" height="70" viewBox="0 0 79 70" fill="none" xmlns="http://www.w3.org/2000/svg">
<path fill-rule="evenodd" clip-rule="evenodd" d="M59.2097 26.2528C54.5315 31.7159 48.4127 37.1862 44.9979 40.2882C42.6549 42.2916 38.3385 47.2157 37.0791 47.2157C35.8181 47.2157 31.8603 42.8377 29.3438 40.6531L29.1618 40.2882C25.743 37.3674 19.2688 31.898 14.5898 26.2528H28.2634C28.6228 26.2528 28.9821 26.0707 29.1618 25.7074L30.2431 23.3328L32.0407 32.9982C32.2204 33.3631 32.5829 33.7264 33.1228 33.7264C33.4822 33.7264 33.8423 33.3631 34.0212 32.8161L35.4595 20.6012L36.9009 28.6218C36.9009 29.1679 37.2603 29.35 37.6197 29.35C37.9791 29.5321 38.5181 29.168 38.5181 28.8031L39.9596 25.5198L41.5775 30.079C41.7564 30.4439 41.9369 30.8072 42.2963 30.8072C42.6557 30.8072 43.0151 30.6252 43.1947 30.2619L45.3588 26.2543H59.2097V26.2528Z" fill="#BDD0FB"/>
<path fill-rule="evenodd" clip-rule="evenodd" d="M65.148 16.2241C64.7879 18.5923 62.9839 21.5115 60.8284 24.4251H44.8174C44.4588 24.4251 44.0924 24.6072 43.9127 24.79L42.6549 27.5279L41.0377 22.6038C40.858 22.2405 40.4986 21.8756 40.1392 21.8756C39.7798 21.8756 39.4197 22.0577 39.2377 22.421L38.1587 25.1525L36.3611 14.4019C36.1814 13.8566 35.8189 13.6737 35.4595 13.4917H35.2798C34.9204 13.4917 34.5611 13.8566 34.3814 14.4019L32.9439 26.9802L31.6821 20.2363C31.5032 19.8714 31.1423 19.5081 30.7837 19.5081C30.4243 19.3261 30.0649 19.5081 29.8852 19.8714L27.7251 24.4243H12.9703C10.8101 21.5099 9.19289 18.5915 8.65069 16.2233C7.75225 11.482 8.47102 7.65808 10.8109 4.92333C12.9711 2.36985 16.5687 0.731383 21.6047 0.185226C22.1438 6.95891e-06 22.5031 0 23.0461 0C27.3633 0 31.8603 2.00653 34.74 5.28823C35.2783 5.83439 36.1806 6.19851 36.9001 6.19851C37.7986 6.19851 38.5173 5.83439 39.2369 5.28823C41.9361 2.00653 46.4354 0 50.9307 0C51.2956 0 51.6557 6.95891e-06 52.194 0.185226C57.4066 0.731383 60.8292 2.37064 63.1652 4.92333C65.3285 7.65887 66.0473 11.4828 65.148 16.2241Z" fill="#4EAEF4"/>
<path fill-rule="evenodd" clip-rule="evenodd" d="M78.8215 51.0389C78.4614 49.7653 76.6574 49.0371 74.502 49.2176C73.9621 49.2176 73.2434 49.3996 72.7043 49.5825C70.1808 50.4927 56.8674 55.5997 56.687 55.7801L56.5073 55.9622L56.687 56.145C58.1323 57.6015 58.8511 59.0595 58.4909 60.3394C58.1323 62.1607 55.7885 63.2538 52.3736 63.6187C49.1314 63.8008 45.1775 63.6187 40.4978 62.5256C40.8572 62.5256 41.5767 62.5256 42.115 62.5256C45.5361 62.5256 48.5924 62.5256 51.1151 62.3435C54.8901 61.9802 56.8674 61.0699 57.0479 59.4236C57.2276 58.332 56.6878 57.4218 55.2502 56.692C53.8112 55.9638 50.7502 55.4184 47.8744 54.8707C45.897 54.5074 44.0931 54.3253 42.8345 53.9604C38.1587 52.4976 33.4813 51.2225 27.9039 51.5874C27.0055 51.7694 26.1063 51.7694 25.3836 52.1336C21.0671 52.8681 16.9296 53.9612 12.6116 55.4184H12.0694L18.5468 65.8041C19.6289 65.6228 20.8867 65.2587 21.9656 65.2587C23.5859 65.0767 24.8445 65.0767 26.2852 65.2587C28.0828 65.6236 32.5829 66.7231 36.7204 67.6318C41.0376 68.7249 45.3588 69.6351 46.976 70C47.8744 70 48.7736 70 49.6721 70C51.8361 69.818 53.9916 68.5436 55.969 67.2684C56.6878 66.7231 57.4065 66.3518 57.9526 65.9869L77.0184 54.5082C79.1817 53.0486 79.1817 51.7687 78.8215 51.0389Z" fill="#4EAEF4"/>
<path fill-rule="evenodd" clip-rule="evenodd" d="M0.375758 55.0527H8.82974C9.19303 55.0527 9.73131 55.4176 10.0915 55.7809L18.1861 68.9061C18.365 69.453 18.365 69.8163 18.0064 69.8163H9.37194C9.00943 69.8163 8.47036 69.453 8.29067 68.9061L0.195298 55.7809C-0.163299 55.4176 0.0163806 55.0527 0.375758 55.0527Z" fill="#BDD0FB"/>
</svg>
