<svg xmlns="http://www.w3.org/2000/svg" xmlns:xlink="http://www.w3.org/1999/xlink" viewBox="0,0,256,256" width="50px" height="50px"><g fill="#4eaef4" fill-rule="nonzero" stroke="none" stroke-width="1" stroke-linecap="butt" stroke-linejoin="miter" stroke-miterlimit="10" stroke-dasharray="" stroke-dashoffset="0" font-family="none" font-weight="none" font-size="none" text-anchor="none" style="mix-blend-mode: normal"><g transform="scale(5.12,5.12)"><path d="M25,2c-12.69141,0 -23,10.30859 -23,23c0,12.69141 10.30859,23 23,23c12.69141,0 23,-10.30859 23,-23c0,-12.69141 -10.30859,-23 -23,-23zM25,4c11.60938,0 21,9.39063 21,21c0,11.60938 -9.39062,21 -21,21c-11.60937,0 -21,-9.39062 -21,-21c0,-11.60937 9.39063,-21 21,-21zM15,18h-4.03125c0,0 -0.23437,-0.01172 -0.51172,0.02734c-0.27734,0.03516 -0.69141,0.05078 -1.11328,0.53125l-0.00391,0.00391c-0.375,0.42969 -0.36328,0.92969 -0.31641,1.20313c0.04687,0.27344 0.15234,0.48047 0.15625,0.48047v0.00391c0.03516,0.09375 2.96484,7.27344 6.66016,11.12891c2.60547,2.72266 5.39063,3.62109 7.875,3.62109h1.28516c0.42188,0 0.80078,-0.01953 1.21875,-0.23437c0.42188,-0.21875 0.78125,-0.81641 0.78125,-1.28125c0,-0.50391 0.01172,-0.98828 0.07813,-1.26172c0.05859,-0.25 0.03516,-0.1875 0.05859,-0.19141c0.02344,0.00781 0.06641,0.01563 0.14844,0.05469c0.17969,0.08203 0.45703,0.26172 0.76172,0.49609c0.60938,0.47656 1.33203,1.16406 2.14453,1.69531c1.16016,0.76953 2.42188,0.72266 2.42188,0.72266h4.15625l0.04297,-0.00391c0,0 0.64063,-0.01562 1.29688,-0.41797c0.32422,-0.19922 0.71484,-0.56641 0.84375,-1.12109c0.13281,-0.55078 -0.03516,-1.12891 -0.35547,-1.64062c-0.11719,-0.18359 -0.6875,-1.01172 -2.96094,-3.03125c-0.58594,-0.51953 -0.98828,-0.88672 -1.14844,-1.08203c-0.05469,-0.07031 -0.05859,-0.06641 -0.07031,-0.06641c0.01172,-0.03516 0.14453,-0.3125 0.49609,-0.76953c0.36719,-0.47656 0.92188,-1.14063 1.63672,-2.05078c0.91406,-1.16406 1.55469,-2.28125 1.95703,-3.22266c0.20313,-0.47266 0.34375,-0.89844 0.42969,-1.28516c0.08594,-0.39062 0.15234,-0.71094 0.02734,-1.17187c-0.09375,-0.34375 -0.35156,-0.64844 -0.60156,-0.80859c-0.25,-0.16406 -0.48437,-0.22656 -0.69531,-0.26562c-0.42187,-0.07422 -0.79297,-0.0625 -1.13672,-0.0625c-0.72266,0 -3.94141,0.02734 -4.20703,0.02734c-0.3125,0 -0.80859,0.12891 -1.03906,0.25781c-0.57031,0.32813 -0.75,0.77734 -0.75,0.77734l-0.05469,0.09375l-0.03125,0.10938c0,0 -0.73437,2.37109 -1.48437,3.59375h-0.00391c-0.88672,1.4375 -1.54688,2.00781 -1.83594,2.17188c-0.03125,0.01563 -0.01562,0.00781 -0.03516,0.01563c-0.02344,-0.0625 -0.05469,-0.15625 -0.07422,-0.32422c-0.03906,-0.37891 -0.01562,-0.91406 -0.01562,-1.43359c0,-1.43359 0.10938,-2.32812 -0.01172,-3.17578c-0.05859,-0.42187 -0.21094,-0.89453 -0.55859,-1.25781c-0.34766,-0.36328 -0.79297,-0.54297 -1.24219,-0.64453c-0.46875,-0.10547 -0.96875,-0.19922 -2.17578,-0.21094c-1.53906,-0.01562 -2.54297,0.03516 -3.43359,0.42969l-0.00781,0.00781h-0.00781c-0.35156,0.16797 -0.62891,0.35547 -0.875,0.60938c-0.12109,0.125 -0.26562,0.21875 -0.36328,0.62109c-0.05078,0.20313 -0.05859,0.58203 0.17188,0.89063c0.22656,0.30859 0.54297,0.40234 0.73438,0.42578c-0.03516,-0.00391 0.14453,0.03516 0.28516,0.10547c0.14453,0.07031 0.26563,0.17188 0.29688,0.21094c-0.01172,-0.01562 0.12109,0.32031 0.15625,0.62891c0.03906,0.30859 0.03125,0.55469 0.03125,0.55469v0.0625l0.00391,0.05859c0,0 0.0625,0.67969 0.02734,1.37891c-0.01562,0.35156 -0.05859,0.70703 -0.11719,0.92188c-0.00391,0.01172 -0.00391,0.00781 -0.00781,0.01563c-0.25,-0.17187 -0.82812,-0.78125 -1.625,-2.09375c-0.73437,-1.21875 -1.42187,-3.40234 -1.42187,-3.40234l-0.01562,-0.05078l-0.01562,-0.04687c0,0 -0.12891,-0.48437 -0.69922,-0.88672c-0.53125,-0.37109 -1.03516,-0.42578 -1.03516,-0.42578zM14.76953,20c0.05859,0.01953 0.17578,0.0625 0.19922,0.07422l-0.02344,-0.07031c0,0 0.03125,0.07031 0.03125,0.07422h0.00391h0.00391c-0.05078,-0.03516 -0.00781,0 -0.00391,0.01172c0.02734,0.09375 0.63672,2.19531 1.59375,3.76953c0.86719,1.4375 1.50781,2.24219 2.20703,2.71875c0.70313,0.48047 1.64453,0.43359 2.12109,0.18359c0.64063,-0.33203 0.81641,-0.87891 0.94141,-1.33203c0.125,-0.45313 0.16797,-0.91406 0.1875,-1.35156c0.03906,-0.83203 -0.02734,-1.51172 -0.03125,-1.57812c0,-0.03906 0.00781,-0.36328 -0.04297,-0.80078c-0.05078,-0.44531 -0.14453,-0.99219 -0.53516,-1.54297c0.4375,-0.06641 0.68359,-0.16406 1.56641,-0.15625c1.13281,0.01172 1.30469,0.05859 1.74609,0.16016c0.24219,0.05469 0.26953,0.10156 0.25,0.07813c-0.02344,-0.02344 -0.00391,-0.03906 0.02344,0.15234c0.05469,0.39063 -0.00781,1.38672 -0.00781,2.89844c0,0.42578 -0.04297,1.02734 0.03125,1.65625c0.07031,0.62891 0.26563,1.43359 1.02734,1.90234c0.42969,0.26953 1.25781,0.36328 2.03906,-0.07031c0.78125,-0.4375 1.58203,-1.26953 2.56641,-2.87109c0.97266,-1.57812 1.55469,-3.65234 1.61719,-3.875c0,0 0.01172,-0.00391 0.01953,-0.01172c0.01953,0.00391 -0.00391,0.00781 0.02344,0.00781c0.37109,0 3.53125,-0.02734 4.20703,-0.02734c0.1875,0 0.26953,0.01172 0.40625,0.01563c-0.05469,0.21484 -0.13281,0.46875 -0.26953,0.79297c-0.32422,0.75781 -0.88281,1.74609 -1.6875,2.77344c-0.69531,0.88672 -1.23828,1.52734 -1.65234,2.0625c-0.41016,0.53906 -0.73437,0.96094 -0.87109,1.57422c-0.13672,0.61328 0.125,1.30078 0.47656,1.73828c0.35156,0.44141 0.78906,0.80859 1.375,1.32422c2.19922,1.95703 2.5625,2.54688 2.59766,2.60156v0.00391c0.03516,0.05859 0.01172,-0.00391 0.02734,0.02734c-0.125,0.03906 -0.27344,0.08203 -0.28906,0.08594h-4.05078c0,0 -0.74609,-0.02344 -1.29687,-0.39062h-0.00391c-0.58594,-0.38672 -1.29297,-1.04297 -2.01953,-1.60547c-0.36328,-0.28125 -0.73438,-0.54687 -1.16406,-0.73828c-0.42578,-0.19531 -0.97266,-0.33203 -1.54297,-0.16016c-0.82812,0.24609 -1.28906,1.03516 -1.4375,1.66016c-0.10547,0.44922 -0.08984,0.83984 -0.09375,1.23438c-0.02734,0 0,0 -0.03516,0h-1.28516c-2.03516,0 -4.14844,-0.62109 -6.42969,-3.00391c-2.96484,-3.09766 -5.60937,-9.08594 -6.00781,-9.99609zM32.21484,20.00781c-0.01953,0.00391 0.03125,0.00781 0.07422,0.01172c-0.00391,0.00391 0,-0.00391 -0.00781,0c0,-0.01562 -0.04297,-0.01562 -0.06641,-0.01172zM32.21484,20.00781"></path></g></g></svg>