<svg width="79" height="70" viewBox="0 0 79 70" fill="none" xmlns="http://www.w3.org/2000/svg">
<path fill-rule="evenodd" clip-rule="evenodd" d="M43.3544 25.9352V28.9669C54.8231 35.5497 60.7132 32.3113 60.7132 47.1496H37.461H37.1462H13.4723C13.4723 31.6827 19.2579 35.5497 30.8323 28.9669V26.3529C28.7298 24.8911 28.3093 22.382 27.6742 19.6651H27.5729C27.2537 19.6651 27.0446 19.1414 27.0446 18.6188C27.0446 18.5139 27.0446 18.41 27.0446 18.41C26.8354 17.9924 26.7286 17.5747 26.5184 17.0521C26.3082 16.2158 25.5728 14.5441 26.2036 13.8127C26.7286 13.2912 27.1525 13.8127 27.1525 13.8127C26.3071 9.42418 25.2569 3.67561 31.3573 2.00395C31.3573 -1.7581 45.5614 -0.0864537 47.349 5.87094C48.0887 8.27402 47.1388 13.7077 47.1388 13.7077C47.2489 13.3951 47.5637 13.2912 47.8785 13.5C48.7206 14.0215 47.8785 16.3207 47.6682 17.0521C47.4591 17.6786 47.2489 18.0973 47.0386 18.5139V18.6188C47.0386 19.1414 46.8295 19.6651 46.5092 19.6651C45.8773 22.0693 45.2455 24.6823 43.3544 25.9352Z" fill="#BDD0FB"/>
<path fill-rule="evenodd" clip-rule="evenodd" d="M78.9128 50.2831C78.3899 48.9263 76.1796 48.091 73.6534 48.2998C73.0226 48.4037 72.2874 48.5086 71.6566 48.7174C68.6031 49.6566 52.9262 55.0925 52.716 55.1964H52.4012L52.6114 55.5123C54.398 56.973 55.2433 58.5408 54.8217 59.7959C54.2934 61.6753 51.7694 62.9304 47.4566 63.2452C43.7746 63.4541 39.0403 63.2452 33.5673 62.1978C34.0935 62.1978 34.8288 62.1978 35.4595 62.1978C39.4619 62.1978 43.2451 62.1979 46.0861 61.989C50.6102 61.6753 52.8217 60.7361 53.0308 58.9595C53.2411 57.8093 52.6114 56.8691 51.0307 56.1388C49.2442 55.3013 45.7714 54.7798 42.2985 54.2561C39.9847 53.8385 37.7755 53.6297 36.1981 53.212C30.8298 51.7503 25.2556 50.2842 18.6247 50.8089C17.6791 51.0178 16.5222 51.1227 15.6812 51.2266C10.6277 52.1679 5.78988 53.317 0.635068 54.7798L-6.10352e-05 54.8837L7.5764 65.6461C8.94684 65.4384 10.3129 65.1246 11.68 65.0197C13.471 64.8108 15.1518 64.9158 16.8381 65.1246C18.8349 65.4384 24.0987 66.4836 29.1478 67.5299C34.3026 68.6778 39.2505 69.6181 41.1416 69.8269C42.1929 70.0357 43.2441 70.0357 44.2986 69.9319C46.8259 69.723 49.4534 68.3652 51.874 67.1122C52.716 66.5885 53.557 66.1698 54.1877 65.7511L76.7047 53.7335C79.1274 52.2718 79.1274 50.9128 78.9128 50.2831Z" fill="#4EAEF4"/>
</svg>
