<svg width="80" height="71" viewBox="0 0 80 71" fill="none" xmlns="http://www.w3.org/2000/svg">
<path fill-rule="evenodd" clip-rule="evenodd" d="M65.57 37.5441L75.7368 29.2133L78.0247 31.5677L73.5231 40.6086L65.57 37.5441Z" fill="#4EAEF4"/>
<path d="M79.513 65.3022H0.75V70.1922H79.513V65.3022Z" fill="#BDD0FB"/>
<path fill-rule="evenodd" clip-rule="evenodd" d="M73.0569 42.6006C75.1012 43.338 60.5706 47.454 57.1998 47.0809C57.1998 47.0809 30.3505 38.0275 18.5199 33.7318C15.3639 32.6829 12.3912 31.5472 9.23492 30.4909C7.18996 29.7637 3.00249 25.7952 3.18246 22.8535C3.61622 20.0845 8.34974 19.5217 10.5736 20.1618C17.8874 22.9221 25.3074 25.3494 32.7988 28.0183L56.5969 12.0438L59.603 15.4409L50.4373 34.0909C57.5703 36.9281 70.7617 41.7101 73.0569 42.6006Z" fill="#4EAEF4"/>
</svg>
