<svg width="80" height="70" viewBox="0 0 80 70" fill="none" xmlns="http://www.w3.org/2000/svg">
<g id="Frame 21">
<path id="Vector" fill-rule="evenodd" clip-rule="evenodd" d="M33.2212 35.2763L16.4581 37.4797C16.2955 35.2763 14.3453 33.7512 12.2254 34.0907L9.94941 15.6042C12.0622 15.4355 13.532 13.3963 13.2062 11.1929L30.288 8.82095L29.9644 5.76624L6.20435 8.99103L10.1127 41.5522L33.0587 38.3274L33.2212 35.2763ZM49.1702 6.27438L66.2534 3.90234C66.4153 6.10426 68.3719 7.63085 70.4847 7.46073L72.7621 25.7779C70.6479 26.116 69.1845 28.1551 69.5103 30.3578L52.4221 32.5612L52.7478 35.6158L76.5065 32.391L72.4364 0L48.6777 3.22484L49.1702 6.27438ZM20.2024 23.5745C20.5282 26.1159 22.641 27.8163 25.0866 27.4783C27.3626 27.1388 29.1511 24.9295 28.8253 22.3881C28.4996 20.0102 26.3868 18.3164 23.9426 18.6559C21.6673 18.8253 19.8788 21.2025 20.2024 23.5745ZM62.5133 17.8083C62.189 15.4363 60.0691 13.7366 57.6306 14.0746C55.3546 14.2499 53.5605 16.6219 53.8862 18.9939C54.2106 21.5412 56.3304 23.2358 58.7689 22.8978C61.0442 22.5575 62.8383 20.3497 62.5133 17.8083ZM42.8184 26.2853C43.4742 26.1159 43.7999 25.7779 44.1243 25.2683C44.45 24.7602 44.6126 24.2513 44.45 23.7439C44.45 23.2343 44.2868 22.7269 43.9625 22.3874C43.4742 22.0494 42.981 21.8792 42.3316 21.7099L42.8184 26.2853ZM39.7298 14.0739C39.2416 14.4193 38.9172 14.5886 38.754 15.0968C38.5908 15.4363 38.4282 15.9437 38.5908 16.2832C38.5908 16.7906 38.754 17.13 39.079 17.468C39.4034 17.8075 39.7291 17.9769 40.216 18.1456L39.7298 14.0739ZM41.1932 26.2853L40.7064 21.5405C39.0805 21.2025 37.9421 20.6936 37.292 20.0102C36.4737 19.1633 35.9847 18.1463 35.8222 16.7913C35.6604 15.6049 35.8222 14.4192 36.4737 13.5665C37.1295 12.5495 38.1053 11.8719 39.4048 11.5324L39.2423 10.5154L40.8682 10.1774L41.0314 11.3624C42.1698 11.3624 43.3124 11.7018 43.9639 12.2092C44.7765 12.8867 45.4266 13.7351 45.7509 14.9266L42.9824 15.6042C42.6566 14.7573 42.1698 14.2491 41.3565 13.9038L41.8433 18.4851C43.8006 18.8246 45.1001 19.1626 45.7502 20.0095C46.5643 20.6929 47.0518 21.7099 47.2143 22.8963C47.3754 24.2513 47.0511 25.6078 46.4017 26.6226C45.7502 27.6455 44.6132 28.4924 43.1498 28.8319L43.4742 31.0338L41.8426 31.2039L41.5183 29.1714C40.2167 29.1714 39.2409 28.8319 38.2664 27.985C37.4538 27.3075 36.7967 26.2846 36.3091 24.7602L39.2402 23.9133C39.4027 24.5908 39.7284 25.0982 40.0527 25.4377C40.3799 25.9458 40.8675 26.1159 41.1932 26.2853ZM31.4327 4.91933L47.0518 2.8853L51.2844 36.6329L43.8 37.6499L35.6597 38.6654L34.1956 27.1388L31.4327 4.91933Z" fill="#BDD0FB"/>
<path id="Vector_2" fill-rule="evenodd" clip-rule="evenodd" d="M79.2701 52.4085C78.7819 51.2163 76.9941 50.5387 74.8799 50.7081C74.2299 50.7081 73.5798 50.8768 73.0858 51.0461C70.4841 51.893 57.1424 56.6437 56.9799 56.8124H56.8174L56.9799 56.9825C58.4426 58.339 59.2559 59.6999 58.7683 60.8863C58.4426 62.5808 56.1666 63.5978 52.584 63.9358C49.4954 64.2753 45.4253 63.9358 40.7051 63.089C41.1919 63.089 41.842 63.089 42.4921 63.089C45.7489 63.089 49.0008 63.089 51.4464 62.9196C55.3532 62.5816 57.1424 61.7346 57.3035 60.2095C57.466 59.1925 56.9792 58.3397 55.6776 57.6607C54.2092 56.9832 51.1206 56.4758 48.1889 55.9662C46.2372 55.6282 44.4487 55.4581 43.1486 55.1193C38.4269 53.7643 33.7074 52.5779 28.1746 52.9174C27.362 53.0875 26.3861 53.0875 25.5728 53.2569C21.3402 54.1038 17.2701 55.1193 12.8799 56.4758H12.3873L18.9017 66.1459C19.8775 65.8064 21.1777 65.637 22.3161 65.637C23.7788 65.299 25.2471 65.4669 26.5487 65.637C28.3371 65.9765 32.8941 66.8234 37.1275 67.8404C41.5177 68.8559 45.5878 69.5349 47.213 69.8729C48.1888 70.0423 49 70.0423 49.9815 69.8729C52.0957 69.7028 54.3718 68.5179 56.3284 67.3315C56.9785 66.9935 57.7911 66.654 58.2787 66.3145L77.3171 55.4596C79.4334 54.271 79.4334 53.0861 79.2701 52.4085ZM0.677263 56.1356H9.13761C9.62447 56.1356 10.1135 56.4751 10.4378 56.8131L18.4106 69.0246C18.7405 69.3641 18.5724 69.7021 18.248 69.7021H9.78769C9.30083 69.7021 8.81188 69.3641 8.64936 69.0246L0.514755 56.8131C0.184058 56.4751 0.345859 56.1356 0.677263 56.1356Z" fill="#4EAEF4"/>
</g>
</svg>
