<svg width="80" height="70" viewBox="0 0 80 70" fill="none" xmlns="http://www.w3.org/2000/svg">
<path fill-rule="evenodd" clip-rule="evenodd" d="M40.6585 0C41.6786 0.819377 40.6585 2.97292 41.2273 3.99821C41.4541 4.61274 42.5881 4.40791 43.1581 4.71571C45.3134 5.74207 47.015 7.27999 48.3782 8.91874C51.3267 12.6092 52.6911 16.9141 53.4843 21.4261C53.7111 22.0417 53.8251 22.6573 53.8251 23.2718C53.9391 23.6815 53.9391 24.0912 53.2587 23.7834C49.6251 22.6573 45.7658 22.0416 42.0194 21.7328C38.8405 21.425 35.778 21.8368 32.7131 22.4513C30.8939 22.7591 28.9679 23.1688 27.2662 23.6804C26.4682 23.9882 26.3578 23.6804 26.3578 23.1678C26.5846 21.7328 26.8114 20.3986 27.1511 19.0677C28.0595 15.1724 29.5331 11.482 32.3712 8.30316C33.732 6.76737 35.2116 5.22727 37.4784 4.61274C39.1836 3.99821 39.1837 3.99821 39.2929 2.25543C39.2929 1.43391 38.9568 0.614532 39.6361 0C39.9793 0 40.3189 0 40.6585 0Z" fill="#BDD0FB"/>
<path fill-rule="evenodd" clip-rule="evenodd" d="M64.2664 22.5532C63.6988 22.5532 63.2452 22.3483 62.6787 22.2454C60.6363 21.8357 58.5927 21.9386 56.6642 22.5532C55.4126 22.861 55.301 22.861 55.1858 21.7316C54.8462 18.6568 53.939 15.6828 52.691 12.8118C51.3278 9.83994 49.3993 7.17591 46.7868 4.91834C46.56 4.71349 46.1065 4.61053 45.9937 4.20192C46.3333 3.99707 46.5601 4.10003 46.8997 4.10003C55.4127 5.84282 62.6788 12.8129 64.0408 20.6034C64.0408 20.8082 64.1572 20.9101 64.2664 21.1171C64.2664 21.6298 64.2664 22.0405 64.2664 22.5532Z" fill="#4EAEF4"/>
<path fill-rule="evenodd" clip-rule="evenodd" d="M39.9792 25.3202C45.3133 25.3202 50.7603 25.4231 56.0932 25.3202C60.4108 25.2183 63.3593 26.7562 64.9458 30.4466C65.4042 31.6757 66.1973 32.8039 66.6521 34.0341C67.6722 37.9304 70.2858 39.2624 74.5975 38.7498C76.5248 38.5449 79.1372 37.9304 79.25 41.2112C79.25 43.9782 78.002 44.6956 75.2767 44.5927C72.783 44.3878 73.1191 46.1306 73.1191 47.5646C73.0087 53.7163 72.8923 59.867 73.1191 66.0177C73.2367 68.9906 72.0991 70.1178 68.8098 69.9129C67.2174 69.7092 65.631 69.7092 64.0398 69.9129C59.6117 70.3226 56.8899 69.4014 57.7984 64.6867C58.138 62.9418 57.004 62.4302 55.1848 62.4302C44.8585 62.5321 34.6404 62.5321 24.3129 62.4302C21.7064 62.4302 21.4749 63.7633 21.5877 65.5061C22.0413 68.6849 20.9084 70.0159 17.1619 69.9129C4.45009 69.6062 6.6089 71.2471 6.3821 60.3807C6.3821 56.0736 6.38213 51.7687 6.49494 47.3597C6.49494 45.5161 6.0413 44.2849 3.54287 44.5927C0.708375 44.7997 0.363997 43.1577 0.25 41.1082C0.25 38.7487 1.95527 38.3391 3.76972 38.7487C9.56101 39.8759 11.8279 36.903 13.6435 32.4962C16.3676 25.8339 17.6156 25.3191 25.6762 25.3191C30.4427 25.3202 35.2139 25.3202 39.9792 25.3202Z" fill="#BDD0FB"/>
<path fill-rule="evenodd" clip-rule="evenodd" d="M15.2346 22.5532C15.801 22.5532 16.2546 22.3483 16.821 22.2454C18.867 21.8357 20.9083 21.9386 22.8391 22.5532C24.0871 22.861 24.0872 22.861 24.3128 21.7316C24.6524 18.6568 25.5608 15.6828 26.8112 12.8118C28.1721 9.83994 30.1005 7.17591 32.7129 4.91834C32.9397 4.71349 33.3922 4.61053 33.3922 4.20192C33.1654 3.99707 32.8245 4.10003 32.5989 4.10003C24.0859 5.84282 16.8199 12.8129 15.459 20.6034C15.459 20.8082 15.345 20.9101 15.2334 21.1171C15.2346 21.6298 15.2346 22.0405 15.2346 22.5532Z" fill="#4EAEF4"/>
<path fill-rule="evenodd" clip-rule="evenodd" d="M39.7536 42.0306C47.6954 42.0306 55.6407 41.9287 63.7001 42.0306C66.9929 42.0306 68.3573 41.3142 66.5393 38.2383C65.1785 35.777 64.0409 33.2137 62.9057 30.6526C61.5448 27.7805 59.2731 26.5515 55.7582 26.6544C47.6941 26.7574 39.522 26.6544 31.4662 26.6544C16.1419 26.7574 19.4348 25.1165 13.0759 37.8286C12.963 38.0335 12.849 38.3402 12.7362 38.5451C11.1486 41.2112 12.3967 42.0306 15.3475 42.0306C23.5209 42.0306 31.5802 42.0306 39.7536 42.0306Z" fill="#FEFEFE"/>
<path fill-rule="evenodd" clip-rule="evenodd" d="M13.19 45.2095H26.017C26.587 45.2095 27.1534 45.6192 27.1534 46.1307V49.2066C27.1534 49.6163 26.587 50.026 26.017 50.026H13.19C12.6235 50.026 12.1699 49.6163 12.1699 49.2066V46.1307C12.1687 45.6192 12.6235 45.2095 13.19 45.2095Z" fill="white"/>
<path fill-rule="evenodd" clip-rule="evenodd" d="M54.053 45.2095H66.8789C67.5593 45.2095 68.0129 45.6192 68.0129 46.1307V49.2066C68.0129 49.6163 67.5593 50.026 66.8789 50.026H54.053C53.4854 50.026 53.033 49.6163 53.033 49.2066V46.1307C53.0318 45.6192 53.4842 45.2095 54.053 45.2095Z" fill="white"/>
</svg>
