<svg width="80" height="70" viewBox="0 0 80 70" fill="none" xmlns="http://www.w3.org/2000/svg">
<path fill-rule="evenodd" clip-rule="evenodd" d="M79.3687 55.6883C78.9722 54.6763 76.9782 54.1674 74.9904 54.3382C74.3934 54.3382 73.7973 54.5069 73.202 54.6763C70.6103 55.3509 57.2852 59.2346 57.2852 59.2346H56.8886L57.0873 59.4032C58.6769 60.5868 59.2722 61.5995 58.8756 62.6115C58.4774 63.9645 56.2908 64.8078 52.7064 65.1451C49.5254 65.3138 45.5436 65.1451 40.9683 64.3018C41.3657 64.3018 41.9618 64.3018 42.5588 64.3018C45.941 64.3018 49.128 64.3018 51.7129 64.1331C55.4891 63.9645 57.2843 63.2869 57.4839 61.9368C57.6826 61.0935 57.0873 60.4152 55.6887 59.9085C54.2969 59.4032 51.3146 59.0652 48.3272 58.5592C46.3393 58.3905 44.551 58.0532 43.1566 57.8838C38.5813 56.8689 33.8073 55.6875 28.4371 56.1935C27.4402 56.1935 26.6445 56.3622 25.8497 56.3622C21.6718 57.0368 17.4947 57.8831 13.1147 58.8958L12.5186 59.0637L19.0852 66.8339C20.0787 66.6631 21.2752 66.4937 22.4683 66.325C24.0588 66.1571 25.4532 66.325 26.8441 66.4937C28.6367 66.6623 33.0133 67.5093 37.1912 68.1839C41.567 69.0273 45.7449 69.7026 47.3345 69.8713C48.328 70.0429 49.1298 70.0429 50.1241 69.8713C52.3107 69.7034 54.4982 68.8593 56.4921 67.8466C57.2869 67.5093 57.8839 67.1712 58.48 67.0033L77.5752 58.2204C79.5683 57.2077 79.5683 56.195 79.3687 55.6883Z" fill="#4EAEF4"/>
<path fill-rule="evenodd" clip-rule="evenodd" d="M0.580898 14.3139C0.978301 15.3266 2.96963 15.8319 5.15621 15.664C5.55361 15.664 6.15318 15.4953 6.75014 15.3266C9.33413 14.6513 22.6653 10.7676 22.864 10.7676H23.0627L22.864 10.599C21.4731 9.41466 20.6739 8.23329 21.0748 7.38998C21.4731 6.03701 23.6588 5.1937 27.2406 4.85638C30.4241 4.68771 34.4034 4.85637 38.9787 5.69968C38.5813 5.69968 37.9852 5.69968 37.3882 5.69968C34.006 5.69968 30.8216 5.69968 28.4371 5.86834C24.4553 6.03627 22.6653 6.71166 22.4674 8.06463C22.4674 8.90794 22.8649 9.58259 24.2558 10.0922C25.6501 10.5982 28.6358 10.9356 31.6181 11.4423C33.6094 11.6102 35.3977 11.9475 36.7921 12.1169C41.3674 13.1326 46.1414 14.3132 51.7137 13.8072C52.5085 13.8072 53.3034 13.6393 54.0982 13.6393C58.4782 12.961 62.454 12.1177 66.8341 11.1049L67.4293 10.937L61.0631 3.16682C59.87 3.33548 58.6769 3.50414 57.4839 3.67281C56.0869 3.84367 54.6951 3.6728 53.3025 3.50414C51.5142 3.33547 46.9354 2.49216 42.7575 1.81678C38.3817 0.97347 34.2038 0.295893 32.6142 0.126497C31.6172 -0.0421656 30.8216 -0.0421656 29.8272 0.126497C27.8359 0.295159 25.4514 1.14214 23.4601 2.15411C22.864 2.49217 22.0692 2.82949 21.4722 2.99742L2.57136 11.7803C0.383047 12.7923 0.38306 13.8079 0.580898 14.3139Z" fill="#4EAEF4"/>
<path fill-rule="evenodd" clip-rule="evenodd" d="M79.1717 11.2744H70.6102C70.2137 11.2744 69.6167 11.1057 69.4172 10.7684L61.2609 0.805552C61.063 0.46456 61.2609 0.296631 61.4596 0.296631H70.0141C70.4107 0.296631 71.0077 0.46456 71.2141 0.805552L79.3687 10.7684C79.5682 11.105 79.5682 11.2744 79.1717 11.2744Z" fill="#BDD0FB"/>
<path fill-rule="evenodd" clip-rule="evenodd" d="M55.0917 35.4246V35.253V34.0724H59.2731C57.0882 32.385 54.8947 30.6955 52.7073 29.0081V19.8879C52.7073 19.2096 52.1103 18.7043 51.5142 18.7043H46.538C45.9419 18.7043 45.345 19.2096 45.345 19.8879V23.2648C43.3571 21.7439 41.3666 20.3938 39.574 18.8722C38.7783 18.3662 38.3809 18.1976 37.7848 18.8722C31.4177 23.6021 25.0541 28.329 18.8848 33.0597C18.2887 33.397 17.8913 33.735 17.4939 34.0724H20.674V35.253C20.674 35.4246 20.674 35.5933 20.674 35.7619C20.674 40.6575 20.674 45.5561 20.674 50.4524C20.674 51.13 20.8727 51.2987 21.6709 51.2987C25.0541 51.2987 28.4363 51.2987 31.6173 51.2987C32.4155 51.2987 32.6142 51.13 32.6142 50.4524C32.6142 47.921 32.6142 45.5561 32.6142 43.0225C32.6142 41.6724 33.6077 40.9949 35.1974 40.8262C36.7913 40.8262 38.1831 40.8262 39.7761 40.8262C42.5597 40.8262 43.3579 41.6725 43.3579 44.0352C43.3579 46.0628 43.3579 48.2591 43.1566 50.4524C43.1566 51.13 43.358 51.2987 44.1536 51.2987C47.3337 51.2987 50.7203 51.13 54.0982 51.2987C54.8947 51.2987 55.0917 51.13 55.0917 50.6204V47.4121C55.0917 43.3605 55.0917 39.3082 55.0917 35.4246Z" fill="#BDD0FB"/>
<path fill-rule="evenodd" clip-rule="evenodd" d="M0.978439 58.7286H9.33427C9.73168 58.7286 10.3312 58.8973 10.5299 59.2346L18.6862 69.1982C18.8849 69.5355 18.8849 69.7042 18.4884 69.7042H9.93471C9.53298 69.7042 8.93773 69.5355 8.73817 69.1982L0.581887 59.2346C0.383185 58.8973 0.581036 58.7286 0.978439 58.7286Z" fill="#BDD0FB"/>
</svg>
